<svg xmlns="http://www.w3.org/2000/svg" width="311.03" height="100" viewBox="0 0 311.03 100"><title>logo-ksrt</title><path fill="#fff" d="M44.91 64.06v11.16h1.81v-4.54l1.66-.12 2.36 4.66h2.11l-2.87-5.56 2.75-5.6h-2.07l-2.28 4.91-1.66.12v-5.03h-1.81zM61.45 65.64v-1.58h-7.04v11.16h7.04v-1.6h-5.23v-3.25h4.24V68.8h-4.24v-3.16h5.23zM66.46 73.8a27.23 27.23 0 0 1-3.36-.3l-.17 1.5.59.12a16.44 16.44 0 0 0 3 .32 4 4 0 0 0 2.67-.87 3.35 3.35 0 0 0 1-2.67 2.67 2.67 0 0 0-.68-2 6 6 0 0 0-2.36-1.11A9.76 9.76 0 0 1 65.1 68a1.23 1.23 0 0 1-.48-1.07c0-1 .7-1.45 2.07-1.45a29.1 29.1 0 0 1 3.23.27l.15-1.47-.58-.11a19.65 19.65 0 0 0-3-.29 4.39 4.39 0 0 0-2.67.77 2.78 2.78 0 0 0-1 2.3 2.83 2.83 0 0 0 .78 2.21 5.72 5.72 0 0 0 2.4 1.08 6.77 6.77 0 0 1 2 .72 1.2 1.2 0 0 1 .46 1c.02 1.25-.65 1.84-2 1.84zM72.27 64.06v11.16h1.8v-4.54l1.66-.12 2.36 4.66h2.11l-2.87-5.56 2.75-5.6h-2.07l-2.28 4.91-1.66.12v-5.03h-1.8zM81.76 64.06h1.81v11.16h-1.81zM85.85 70.02h4.87v1.61h-4.87zM95.68 73.8a26.57 26.57 0 0 1-3.34-.3l-.19 1.5.59.12a16.55 16.55 0 0 0 3.06.32 4.14 4.14 0 0 0 2.67-.87 3.32 3.32 0 0 0 1-2.67 2.68 2.68 0 0 0-.69-2 5.92 5.92 0 0 0-2.35-1.11 9 9 0 0 1-2.09-.79 1.22 1.22 0 0 1-.5-1.07c0-1 .7-1.45 2.07-1.45a29.1 29.1 0 0 1 3.23.27l.14-1.47-.6-.09a18.46 18.46 0 0 0-3-.3 4.32 4.32 0 0 0-2.67.78 2.64 2.64 0 0 0-1 2.29 2.79 2.79 0 0 0 .77 2.21 5.47 5.47 0 0 0 2.39 1.11 6.86 6.86 0 0 1 2 .72 1.22 1.22 0 0 1 .45 1c.09 1.21-.62 1.8-1.94 1.8zM105.49 75.4a4.56 4.56 0 0 0 3.08-.91 3.62 3.62 0 0 0 1-2.87v-7.56h-1.83v7.59c0 1.44-.76 2.17-2.28 2.17s-2.28-.73-2.28-2.17v-7.59h-1.87v7.56a3.64 3.64 0 0 0 1 2.87 4.49 4.49 0 0 0 3.18.91zM119.66 74a7.4 7.4 0 0 0 1-4.34 7.62 7.62 0 0 0-1-4.4 5 5 0 0 0-7 0 7.59 7.59 0 0 0-1 4.39 7.49 7.49 0 0 0 1 4.32 5.26 5.26 0 0 0 7.07 0zm-1.41-1.16a2.27 2.27 0 0 1-2.12.94 2.18 2.18 0 0 1-2.11-1 6.62 6.62 0 0 1-.56-3.17 6.67 6.67 0 0 1 .57-3.21 2.64 2.64 0 0 1 4.19 0 6.85 6.85 0 0 1 .57 3.22 6.79 6.79 0 0 1-.54 3.26zM134.05 75.22V64.06h-3.16l-2.49 8.71-2.5-8.71h-3.13v11.16h1.8v-9.16h.24l2.64 8.7h1.89l2.64-8.7h.24v9.16h1.83zM143.65 65.64v-1.58h-7.04v11.16h7.04v-1.6h-5.23v-3.25h4.24V68.8h-4.24v-3.16h5.23zM154.21 75.22V64.06h-1.8v9.56h-.24l-3.4-9.56h-3.16v11.16h1.82v-9.58h.22l3.47 9.58h3.09zM57.34 89.91c0-2.12-.5-3.58-1.53-4.36a8.45 8.45 0 0 0-5.05-1.18h-6.45v15.28h5.34v-4H51l.87 4h5.33l-1.49-5.2a5.5 5.5 0 0 0 1.63-4.54zm-6.45 1.62h-1.33v-3h1.16c.84 0 1.25.5 1.25 1.49s-.35 1.49-1.09 1.49zM61.34 84.37L58 99.65h5.2l.37-1.76h3.49l.44 1.76h5.33l-3.48-15.28zm2.88 9.5l.87-5.34h.57l.82 5.34zM87.12 84.37h-5.25l-1.71 5.42h-.91v-5.42h-5.29v15.29h5.29v-5.09h.94l1.84 5.09h5.32l-2.67-7.9 2.44-7.39zM88.42 99.66h11.45v-4.22h-6.16v-1.37h4.79v-4.18h-4.79V88.6h6.16v-4.23H88.42v15.29zM110.54 90.17h-.32l-3.51-5.8h-5.2v15.29h5.28v-6.23h.35l3.47 6.23h5.22V84.37h-5.29v5.8zM126.8 90.17h-.33l-3.5-5.8h-5.2v15.29h5.29v-6.23h.33l3.49 6.23h5.21V84.37h-5.29v5.8zM142.08 94.39a1.19 1.19 0 0 1-.32.93 2.3 2.3 0 0 1-2.2 0 1.2 1.2 0 0 1-.34-.93v-10h-5.33v9.82a5.43 5.43 0 0 0 1.67 4.45 8.19 8.19 0 0 0 5.09 1.33 8 8 0 0 0 5.1-1.33 5.57 5.57 0 0 0 1.62-4.55v-9.74H142zM160.27 91.19a5.67 5.67 0 0 0-1.67-.87 24.33 24.33 0 0 0-2.37-.63 11.18 11.18 0 0 1-1.72-.46.42.42 0 0 1-.27-.39.33.33 0 0 1 .24-.32 8.7 8.7 0 0 1 1.69-.08q1.47 0 4.68.33l.14-4.1-1-.16a34.59 34.59 0 0 0-5.08-.43 7.38 7.38 0 0 0-4.56 1.13 5.1 5.1 0 0 0-1.5 4.23 4.53 4.53 0 0 0 1.16 3.48 8.56 8.56 0 0 0 4.35 1.56 10.72 10.72 0 0 1 1.48.28.37.37 0 0 1 .27.33c0 .35-.39.52-1.19.52a40.5 40.5 0 0 1-5.72-.49l-.23 4 .9.21a23.94 23.94 0 0 0 2.46.42 26.23 26.23 0 0 0 3.07.2 7.15 7.15 0 0 0 4.6-1.22 4.83 4.83 0 0 0 1.49-4 7.63 7.63 0 0 0-.23-2.18 2.64 2.64 0 0 0-.99-1.36zM162.36 88.68h3.15v10.98h5.28V88.68h2.97v-4.31h-11.4v4.31zM175.24 99.66h11.45v-4.22h-6.15v-1.37h4.79v-4.18h-4.79V88.6h6.15v-4.23h-11.45v15.29zM201.49 84.37h-5.24l-1.71 5.42h-.92v-5.42h-5.29v15.29h5.29v-5.09h.93l1.86 5.09h5.31l-2.67-7.9 2.44-7.39zM211.82 90.17h-.32l-3.5-5.8h-5.21v15.29h5.29v-6.23h.34l3.47 6.23h5.23V84.37h-5.3v5.8zM219.05 84.37h5.29v15.28h-5.29zM226.28 84.37h5.29v15.28h-5.29zM246.67 84.37h-5.24l-1.72 5.42h-.91v-5.42h-5.29v15.29h5.29v-5.09h.94l1.85 5.09h5.31l-2.67-7.9 2.44-7.39zM261.13 84.37h-5.25l-1.7 5.42h-.92v-5.42h-5.3v15.29h5.3v-5.09h.93l1.86 5.09h5.3l-2.66-7.9 2.44-7.39zM265 84.37l-3.38 15.28h5.2l.36-1.76h3.52l.43 1.76h5.33L273 84.37zm2.88 9.5l.86-5.34h.63l.83 5.34zM290 84.08a7.2 7.2 0 0 0-5.54 1.92c-1.16 1.25-1.73 3.27-1.73 6s.57 4.8 1.75 6a9 9 0 0 0 11.06 0c1.17-1.25 1.74-3.26 1.74-6s-.57-4.8-1.74-6a7.19 7.19 0 0 0-5.54-1.92zm1.57 10.67a1.5 1.5 0 0 1-1.56.85 1.54 1.54 0 0 1-1.57-.85 7.5 7.5 0 0 1-.39-2.78 7.28 7.28 0 0 1 .37-2.78 1.56 1.56 0 0 1 1.59-.87 1.5 1.5 0 0 1 1.56.84 7.8 7.8 0 0 1 .36 2.8 7.23 7.23 0 0 1-.36 2.85zM305.44 84.37l-1.48 4.5-1.44-4.5h-5.6l4.35 10.5v4.79h5.29v-4.79l4.47-10.5h-5.59z"/><path d="M55.78 17.56l48.48 38.67 7.32-9.17-24.1-19.22 18.19-14.55 38.82 31 7.32-9.17-42.46-33.83a5.85 5.85 0 0 0-7.33 0L78 20.4 59.34 5.53a5.86 5.86 0 0 0-7.32 0L0 47.07l7.32 9.18 8.52-6.8v50.2h11.72V40.08z" fill="#fff"/></svg>